<svg width="219" height="75" viewBox="0 0 219 75" fill="none" xmlns="http://www.w3.org/2000/svg">
<path d="M24.1138 16.3911H195.291C203.364 16.3911 204.523 21.2026 204.523 27.1326V47.47C204.523 53.4001 197.973 58.2116 189.9 58.2116H29.1004C21.0274 58.2116 14.4774 53.4001 14.4774 47.47V27.1326" fill="white"/>
<path d="M211.261 50.3813V24.2351C211.261 16.7416 205.183 10.6633 197.69 10.6633H21.3105L7.73871 24.2351V50.3813C7.73871 57.8747 13.817 63.9531 21.3105 63.9531H197.69" stroke="#FFBA42" stroke-width="1.34774" stroke-miterlimit="10"/>
<path d="M203.633 63.9396C203.633 65.5569 202.326 66.8642 200.708 66.8642C199.091 66.8642 197.784 65.5569 197.784 63.9396C197.784 62.3223 199.091 61.015 200.708 61.015C202.326 61.015 203.633 62.3223 203.633 63.9396Z" stroke="#FFBA42" stroke-width="1.34774" stroke-miterlimit="10"/>
<path d="M82.6867 3.9246C82.6867 5.54189 81.3794 6.8492 79.7621 6.8492C78.1448 6.8492 76.8375 5.54189 76.8375 3.9246C76.8375 2.30731 78.1448 1 79.7621 1C81.3794 1 82.6867 2.30731 82.6867 3.9246Z" stroke="#FFBA42" stroke-width="1.34774" stroke-miterlimit="10"/>
<path d="M55.6914 70.6783C55.6914 72.2956 54.3841 73.6029 52.7668 73.6029C51.1495 73.6029 49.8422 72.2956 49.8422 70.6783C49.8422 69.061 51.1495 67.7537 52.7668 67.7537C54.3841 67.7537 55.6914 69.061 55.6914 70.6783Z" stroke="#FFBA42" stroke-width="1.34774" stroke-miterlimit="10"/>
<path d="M70.6109 70.6783C70.6109 72.2956 69.3035 73.6029 67.6863 73.6029C66.069 73.6029 64.7617 72.2956 64.7617 70.6783C64.7617 69.061 66.069 67.7537 67.6863 67.7537C69.3035 67.7537 70.6109 69.061 70.6109 70.6783Z" stroke="#FFBA42" stroke-width="1.34774" stroke-miterlimit="10"/>
<path d="M176.166 70.6783C176.166 72.2956 174.859 73.6029 173.241 73.6029C171.624 73.6029 170.317 72.2956 170.317 70.6783C170.317 69.061 171.624 67.7537 173.241 67.7537C174.859 67.7537 176.166 69.061 176.166 70.6783Z" stroke="#FFBA42" stroke-width="1.34774" stroke-miterlimit="10"/>
<path d="M103.078 3.9246C103.078 5.54189 101.771 6.8492 100.153 6.8492C98.5361 6.8492 97.2288 5.54189 97.2288 3.9246C97.2288 2.30731 98.5361 1 100.153 1C101.771 1 103.078 2.30731 103.078 3.9246Z" stroke="#FFBA42" stroke-width="1.34774" stroke-miterlimit="10"/>
<path d="M24.6259 10.6633C24.6259 12.2806 23.3186 13.5879 21.7013 13.5879C20.084 13.5879 18.7767 12.2806 18.7767 10.6633C18.7767 9.04602 20.084 7.73871 21.7013 7.73871C23.3186 7.73871 24.6259 9.04602 24.6259 10.6633Z" fill="#FFBA42"/>
<path d="M107.067 63.9396C107.067 65.5569 105.76 66.8642 104.143 66.8642C102.525 66.8642 101.218 65.5569 101.218 63.9396C101.218 62.3223 102.525 61.015 104.143 61.015C105.76 61.015 107.067 62.3223 107.067 63.9396Z" fill="#FFBA42"/>
<path d="M214.172 52.969C214.172 54.5863 212.865 55.8936 211.248 55.8936C209.631 55.8936 208.323 54.5863 208.323 52.969C208.323 51.3517 209.631 50.0444 211.248 50.0444C212.865 50.0444 214.172 51.3517 214.172 52.969Z" stroke="#FFBA42" stroke-width="1.34774" stroke-miterlimit="10"/>
<path d="M50.57 70.6783H21.3105C10.1107 70.6783 1 61.5676 1 50.3678V21.4183L2.96771 19.4506" stroke="#FFBA42" stroke-width="1.34774" stroke-miterlimit="10"/>
<path d="M155.465 70.6783H70.6109" stroke="#FFBA42" stroke-width="1.34774" stroke-linecap="round" stroke-linejoin="round"/>
<path d="M102.903 3.92462H197.69C208.889 3.92462 218 13.0354 218 24.2351V50.3813H204.523V24.2351C204.523 20.4749 201.463 17.402 197.69 17.402H24.1003L14.4774 27.0249V50.3813C14.4774 54.1415 17.5368 57.2143 21.3105 57.2143H197.69V70.6918H175.465" stroke="#FFBA42" stroke-width="1.34774" stroke-linecap="round" stroke-linejoin="round"/>
<path d="M16.5529 5.89232L18.5206 3.92462H21.3104H76.8509" stroke="#FFBA42" stroke-width="1.34774" stroke-miterlimit="10"/>
<path d="M66.6587 27.1658L62.9163 46.7029C62.9163 46.7029 62.3927 48.0575 60.9543 47.4078L52.3197 40.552L52.2797 40.5318C53.446 39.4473 62.4902 31.0264 62.8855 30.6447C63.4974 30.0536 63.1176 29.7016 62.4071 30.1482L49.0476 38.9338L43.8936 37.138C43.8936 37.138 43.0825 36.8392 43.0045 36.1895C42.9254 35.5388 43.9203 35.1869 43.9203 35.1869L64.9317 26.6512C64.9317 26.6512 66.6587 25.8654 66.6587 27.1658Z" fill="#010101"/>
<path d="M76.1352 29.062H90.0392V32.45H84.9352V45.1H81.5252V32.45H76.1352V29.062ZM96.2885 34.628C96.8019 34.628 97.2932 34.7087 97.7625 34.87C98.2319 35.0313 98.6425 35.2587 98.9945 35.552C99.3612 35.8453 99.6472 36.212 99.8525 36.652C100.073 37.0773 100.183 37.554 100.183 38.082V40.568H93.6485V41.58C93.6485 41.712 93.6705 41.8733 93.7145 42.064C93.7732 42.2547 93.8685 42.438 94.0005 42.614C94.1325 42.7753 94.3159 42.9147 94.5505 43.032C94.7852 43.1493 95.0859 43.208 95.4525 43.208H96.3105C97.3665 43.208 97.8945 42.724 97.8945 41.756H100.381V42.416C100.381 42.944 100.278 43.384 100.073 43.736C99.8672 44.0733 99.5959 44.3447 99.2585 44.55C98.9212 44.7553 98.5325 44.8947 98.0925 44.968C97.6525 45.056 97.1979 45.1 96.7285 45.1H94.6165C94.2499 45.1 93.8685 45.0487 93.4725 44.946C93.0912 44.8433 92.7245 44.6673 92.3725 44.418C92.0352 44.1833 91.7419 43.868 91.4925 43.472C91.2432 43.0613 91.0745 42.5627 90.9865 41.976V38.082C90.9865 37.598 91.0965 37.1507 91.3165 36.74C91.5365 36.3147 91.8299 35.948 92.1965 35.64C92.5632 35.3173 92.9885 35.068 93.4725 34.892C93.9712 34.716 94.4919 34.628 95.0345 34.628H96.2885ZM93.6485 38.918H97.6745V38.258C97.6745 38.0673 97.6232 37.884 97.5205 37.708C97.4325 37.5173 97.3079 37.356 97.1465 37.224C96.9852 37.0773 96.8019 36.9673 96.5965 36.894C96.3912 36.806 96.1859 36.762 95.9805 36.762H95.2765C95.0712 36.762 94.8659 36.806 94.6605 36.894C94.4699 36.9673 94.2939 37.0773 94.1325 37.224C93.9859 37.356 93.8685 37.5173 93.7805 37.708C93.6925 37.884 93.6485 38.0673 93.6485 38.258V38.918ZM105.442 45.1H102.56V29.062H105.442V45.1ZM112.552 34.628C113.066 34.628 113.557 34.7087 114.026 34.87C114.496 35.0313 114.906 35.2587 115.258 35.552C115.625 35.8453 115.911 36.212 116.116 36.652C116.336 37.0773 116.446 37.554 116.446 38.082V40.568H109.912V41.58C109.912 41.712 109.934 41.8733 109.978 42.064C110.037 42.2547 110.132 42.438 110.264 42.614C110.396 42.7753 110.58 42.9147 110.814 43.032C111.049 43.1493 111.35 43.208 111.716 43.208H112.574C113.63 43.208 114.158 42.724 114.158 41.756H116.644V42.416C116.644 42.944 116.542 43.384 116.336 43.736C116.131 44.0733 115.86 44.3447 115.522 44.55C115.185 44.7553 114.796 44.8947 114.356 44.968C113.916 45.056 113.462 45.1 112.992 45.1H110.88C110.514 45.1 110.132 45.0487 109.736 44.946C109.355 44.8433 108.988 44.6673 108.636 44.418C108.299 44.1833 108.006 43.868 107.756 43.472C107.507 43.0613 107.338 42.5627 107.25 41.976V38.082C107.25 37.598 107.36 37.1507 107.58 36.74C107.8 36.3147 108.094 35.948 108.46 35.64C108.827 35.3173 109.252 35.068 109.736 34.892C110.235 34.716 110.756 34.628 111.298 34.628H112.552ZM109.912 38.918H113.938V38.258C113.938 38.0673 113.887 37.884 113.784 37.708C113.696 37.5173 113.572 37.356 113.41 37.224C113.249 37.0773 113.066 36.9673 112.86 36.894C112.655 36.806 112.45 36.762 112.244 36.762H111.54C111.335 36.762 111.13 36.806 110.924 36.894C110.734 36.9673 110.558 37.0773 110.396 37.224C110.25 37.356 110.132 37.5173 110.044 37.708C109.956 37.884 109.912 38.0673 109.912 38.258V38.918ZM126.986 34.606V46.09C126.986 46.662 126.868 47.1387 126.634 47.52C126.414 47.9013 126.135 48.2093 125.798 48.444C125.475 48.6933 125.116 48.8693 124.72 48.972C124.338 49.0747 123.994 49.126 123.686 49.126H121.42C121.112 49.126 120.789 49.0673 120.452 48.95C120.114 48.8327 119.806 48.6493 119.528 48.4C119.264 48.1507 119.036 47.8353 118.846 47.454C118.67 47.0727 118.582 46.6253 118.582 46.112H121.112C121.126 46.2587 121.148 46.4053 121.178 46.552C121.207 46.6987 121.258 46.8307 121.332 46.948C121.42 47.0653 121.53 47.1607 121.662 47.234C121.794 47.3073 121.962 47.344 122.168 47.344H123.114C123.451 47.344 123.722 47.234 123.928 47.014C124.148 46.8087 124.258 46.5813 124.258 46.332V44.418C124.126 44.5647 123.913 44.6747 123.62 44.748C123.326 44.836 123.084 44.88 122.894 44.88H121.222C120.796 44.88 120.4 44.814 120.034 44.682C119.682 44.55 119.366 44.3593 119.088 44.11C118.809 43.8753 118.589 43.5893 118.428 43.252C118.281 42.9147 118.208 42.5407 118.208 42.13V38.434C118.208 38.0087 118.288 37.6127 118.45 37.246C118.626 36.8647 118.853 36.542 119.132 36.278C119.425 35.9993 119.762 35.7793 120.144 35.618C120.525 35.4567 120.936 35.376 121.376 35.376H122.74C123.238 35.376 123.744 35.508 124.258 35.772V34.606H126.986ZM122.806 43.208C123.143 43.208 123.444 43.1053 123.708 42.9C123.972 42.6947 124.104 42.3133 124.104 41.756V38.61C124.104 38.1407 123.935 37.8033 123.598 37.598C123.275 37.378 122.938 37.268 122.586 37.268H122.124C121.684 37.268 121.332 37.4 121.068 37.664C120.804 37.9133 120.672 38.2727 120.672 38.742V41.866C120.672 42.174 120.767 42.4747 120.958 42.768C121.148 43.0613 121.464 43.208 121.904 43.208H122.806ZM136.84 34.584V37.378C136.532 37.378 136.173 37.3927 135.762 37.422C135.351 37.4513 134.911 37.5173 134.442 37.62C133.973 37.708 133.496 37.8473 133.012 38.038C132.528 38.2287 132.059 38.4927 131.604 38.83V45.1H128.59V34.628H131.604V36.102C131.824 35.9407 132.095 35.772 132.418 35.596C132.741 35.42 133.115 35.266 133.54 35.134C133.98 34.9873 134.471 34.8627 135.014 34.76C135.571 34.6573 136.18 34.5987 136.84 34.584ZM147.21 40.964C147.21 41.5947 147.327 42.2987 147.562 43.076C147.811 43.8533 148.17 44.616 148.64 45.364H146.044L145.45 44.088C145.186 44.4107 144.878 44.6527 144.526 44.814C144.188 44.99 143.844 45.078 143.492 45.078H140.874C140.566 45.078 140.243 45.0193 139.906 44.902C139.583 44.7847 139.29 44.6013 139.026 44.352C138.762 44.1173 138.542 43.8093 138.366 43.428C138.19 43.0467 138.102 42.592 138.102 42.064V38.082C138.102 37.6567 138.175 37.2607 138.322 36.894C138.468 36.5127 138.674 36.1827 138.938 35.904C139.216 35.6107 139.546 35.3833 139.928 35.222C140.324 35.0607 140.771 34.98 141.27 34.98H142.458C142.56 34.98 142.7 34.9947 142.876 35.024C143.052 35.0387 143.235 35.0827 143.426 35.156C143.616 35.2147 143.8 35.3027 143.976 35.42C144.166 35.5227 144.335 35.662 144.482 35.838V34.606H147.21V40.964ZM144.042 38.698C144.042 38.3607 143.99 38.0747 143.888 37.84C143.785 37.6053 143.653 37.422 143.492 37.29C143.33 37.1433 143.154 37.0407 142.964 36.982C142.773 36.9087 142.59 36.872 142.414 36.872H141.82C141.468 36.872 141.167 37.0187 140.918 37.312C140.668 37.5907 140.544 37.906 140.544 38.258V41.778C140.544 41.8953 140.551 42.042 140.566 42.218C140.595 42.3793 140.654 42.5333 140.742 42.68C140.83 42.8267 140.954 42.9513 141.116 43.054C141.292 43.1567 141.526 43.208 141.82 43.208H142.546C142.986 43.208 143.345 43.1053 143.624 42.9C143.902 42.68 144.042 42.306 144.042 41.778V38.698ZM161.426 45.1V39.204C161.426 38.7493 161.346 38.3533 161.184 38.016C161.023 37.664 160.722 37.4807 160.282 37.466C159.461 37.4367 159.05 38.0307 159.05 39.248V45.1H156.63V39.204C156.63 38.7493 156.506 38.346 156.256 37.994C156.022 37.642 155.655 37.466 155.156 37.466C154.76 37.466 154.445 37.532 154.21 37.664C153.976 37.796 153.792 37.972 153.66 38.192C153.528 38.3973 153.44 38.632 153.396 38.896C153.367 39.16 153.352 39.424 153.352 39.688V45.1H150.162V34.408H153.352V35.552C153.426 35.4347 153.602 35.3247 153.88 35.222C154.159 35.1047 154.423 35.046 154.672 35.046H155.772C156.168 35.046 156.542 35.134 156.894 35.31C157.246 35.486 157.54 35.7207 157.774 36.014C157.98 35.7207 158.273 35.486 158.654 35.31C159.036 35.134 159.38 35.046 159.688 35.046H160.678C161.089 35.046 161.47 35.1413 161.822 35.332C162.174 35.508 162.475 35.7647 162.724 36.102C162.988 36.4247 163.194 36.8207 163.34 37.29C163.487 37.7447 163.56 38.2433 163.56 38.786V45.1H161.426Z" fill="black"/>
</svg>
