<svg width="219" height="75" viewBox="0 0 219 75" fill="none" xmlns="http://www.w3.org/2000/svg">
<path d="M24.1138 16.3911H195.291C203.364 16.3911 204.523 21.2026 204.523 27.1326V47.47C204.523 53.4001 197.973 58.2116 189.9 58.2116H29.1004C21.0274 58.2116 14.4774 53.4001 14.4774 47.47V27.1326" fill="white"/>
<path d="M211.261 50.3813V24.2351C211.261 16.7416 205.183 10.6633 197.69 10.6633H21.3105L7.73871 24.2351V50.3813C7.73871 57.8747 13.817 63.9531 21.3105 63.9531H197.69" stroke="#FFBA42" stroke-width="1.34774" stroke-miterlimit="10"/>
<path d="M203.633 63.9396C203.633 65.5569 202.326 66.8642 200.708 66.8642C199.091 66.8642 197.784 65.5569 197.784 63.9396C197.784 62.3223 199.091 61.015 200.708 61.015C202.326 61.015 203.633 62.3223 203.633 63.9396Z" stroke="#FFBA42" stroke-width="1.34774" stroke-miterlimit="10"/>
<path d="M82.6867 3.9246C82.6867 5.54189 81.3794 6.8492 79.7621 6.8492C78.1448 6.8492 76.8375 5.54189 76.8375 3.9246C76.8375 2.30731 78.1448 1 79.7621 1C81.3794 1 82.6867 2.30731 82.6867 3.9246Z" stroke="#FFBA42" stroke-width="1.34774" stroke-miterlimit="10"/>
<path d="M55.6914 70.6783C55.6914 72.2956 54.3841 73.6029 52.7668 73.6029C51.1495 73.6029 49.8422 72.2956 49.8422 70.6783C49.8422 69.061 51.1495 67.7537 52.7668 67.7537C54.3841 67.7537 55.6914 69.061 55.6914 70.6783Z" stroke="#FFBA42" stroke-width="1.34774" stroke-miterlimit="10"/>
<path d="M70.6109 70.6783C70.6109 72.2956 69.3036 73.6029 67.6863 73.6029C66.069 73.6029 64.7617 72.2956 64.7617 70.6783C64.7617 69.061 66.069 67.7537 67.6863 67.7537C69.3036 67.7537 70.6109 69.061 70.6109 70.6783Z" stroke="#FFBA42" stroke-width="1.34774" stroke-miterlimit="10"/>
<path d="M176.166 70.6783C176.166 72.2956 174.859 73.6029 173.241 73.6029C171.624 73.6029 170.317 72.2956 170.317 70.6783C170.317 69.061 171.624 67.7537 173.241 67.7537C174.859 67.7537 176.166 69.061 176.166 70.6783Z" stroke="#FFBA42" stroke-width="1.34774" stroke-miterlimit="10"/>
<path d="M103.078 3.9246C103.078 5.54189 101.771 6.8492 100.153 6.8492C98.5362 6.8492 97.2289 5.54189 97.2289 3.9246C97.2289 2.30731 98.5362 1 100.153 1C101.771 1 103.078 2.30731 103.078 3.9246Z" stroke="#FFBA42" stroke-width="1.34774" stroke-miterlimit="10"/>
<path d="M24.6259 10.6633C24.6259 12.2806 23.3186 13.5879 21.7013 13.5879C20.084 13.5879 18.7767 12.2806 18.7767 10.6633C18.7767 9.04602 20.084 7.73871 21.7013 7.73871C23.3186 7.73871 24.6259 9.04602 24.6259 10.6633Z" fill="#FFBA42"/>
<path d="M107.067 63.9396C107.067 65.5569 105.76 66.8642 104.143 66.8642C102.525 66.8642 101.218 65.5569 101.218 63.9396C101.218 62.3223 102.525 61.015 104.143 61.015C105.76 61.015 107.067 62.3223 107.067 63.9396Z" fill="#FFBA42"/>
<path d="M214.172 52.969C214.172 54.5863 212.865 55.8936 211.248 55.8936C209.631 55.8936 208.323 54.5863 208.323 52.969C208.323 51.3517 209.631 50.0444 211.248 50.0444C212.865 50.0444 214.172 51.3517 214.172 52.969Z" stroke="#FFBA42" stroke-width="1.34774" stroke-miterlimit="10"/>
<path d="M50.57 70.6783H21.3105C10.1107 70.6783 1 61.5676 1 50.3678V21.4183L2.96771 19.4506" stroke="#FFBA42" stroke-width="1.34774" stroke-miterlimit="10"/>
<path d="M155.465 70.6783H70.611" stroke="#FFBA42" stroke-width="1.34774" stroke-linecap="round" stroke-linejoin="round"/>
<path d="M102.903 3.92462H197.69C208.889 3.92462 218 13.0354 218 24.2351V50.3813H204.523V24.2351C204.523 20.4749 201.463 17.402 197.69 17.402H24.1003L14.4774 27.0249V50.3813C14.4774 54.1415 17.5368 57.2143 21.3105 57.2143H197.69V70.6918H175.465" stroke="#FFBA42" stroke-width="1.34774" stroke-linecap="round" stroke-linejoin="round"/>
<path d="M16.5529 5.89232L18.5206 3.92462H21.3104H76.8509" stroke="#FFBA42" stroke-width="1.34774" stroke-miterlimit="10"/>
<path d="M75.4058 30.6533C74.5341 31.0269 73.538 31.2759 72.5418 31.4005C73.538 30.7779 74.4096 29.7817 74.7832 28.661C73.787 29.2836 72.7909 29.6572 71.5457 29.9062C70.674 28.9101 69.3043 28.2875 67.9346 28.2875C65.1952 28.2875 62.9538 30.5288 62.9538 33.2682C62.9538 33.6418 62.9538 34.0154 63.0784 34.3889C58.9692 34.1399 55.2336 32.1476 52.7433 29.1591C52.3697 29.9062 52.1207 30.7779 52.1207 31.6495C52.1207 33.3928 52.9923 34.887 54.362 35.7586C53.4904 35.7586 52.7433 35.5096 52.1207 35.136C52.1207 37.5019 53.8639 39.6187 56.1053 39.9923C55.7317 40.1168 55.2337 40.1168 54.7356 40.1168C54.362 40.1168 54.113 40.1168 53.7394 39.9923C54.362 41.9846 56.2298 43.4788 58.4712 43.4788C56.7279 44.8485 54.6111 45.5956 52.2452 45.5956C51.8716 45.5956 51.4981 45.5957 51 45.4711C53.2413 46.8408 55.8562 47.7125 58.7202 47.7125C67.9346 47.7125 72.9154 40.1168 72.9154 33.5173V32.8947C73.9115 32.5211 74.7832 31.6495 75.4058 30.6533Z" fill="#010101"/>
<path d="M84.9028 30.062H98.8068V33.45H93.7028V46.1H90.2928V33.45H84.9028V30.062ZM111.568 35.65H115.638L111.656 46.1H108.84L107.454 42.47L106.068 46.1H103.406L99.4242 35.65H102.548C102.915 36.6033 103.274 37.5493 103.626 38.488C103.978 39.412 104.345 40.3507 104.726 41.304C104.741 41.2453 104.785 41.1207 104.858 40.93C104.946 40.7393 105.042 40.512 105.144 40.248C105.247 39.9693 105.357 39.6687 105.474 39.346C105.606 39.0087 105.738 38.6713 105.87 38.334L104.858 35.65H107.19C107.557 36.6033 107.916 37.5493 108.268 38.488C108.62 39.412 108.987 40.3507 109.368 41.304L111.568 35.65ZM117.584 33.648V31.052H120.246V33.648H117.584ZM117.584 46.1V35.65H120.246V46.1H117.584ZM130.231 35.43V37.608H127.877V46.1H124.643V37.608H122.311V35.43H124.643V30.722H127.877V35.43H130.231ZM139.147 35.43V37.608H136.793V46.1H133.559V37.608H131.227V35.43H133.559V30.722H136.793V35.43H139.147ZM145.511 35.628C146.025 35.628 146.516 35.7087 146.985 35.87C147.455 36.0313 147.865 36.2587 148.217 36.552C148.584 36.8453 148.87 37.212 149.075 37.652C149.295 38.0773 149.405 38.554 149.405 39.082V41.568H142.871V42.58C142.871 42.712 142.893 42.8733 142.937 43.064C142.996 43.2547 143.091 43.438 143.223 43.614C143.355 43.7753 143.539 43.9147 143.773 44.032C144.008 44.1493 144.309 44.208 144.675 44.208H145.533C146.589 44.208 147.117 43.724 147.117 42.756H149.603V43.416C149.603 43.944 149.501 44.384 149.295 44.736C149.09 45.0733 148.819 45.3447 148.481 45.55C148.144 45.7553 147.755 45.8947 147.315 45.968C146.875 46.056 146.421 46.1 145.951 46.1H143.839C143.473 46.1 143.091 46.0487 142.695 45.946C142.314 45.8433 141.947 45.6673 141.595 45.418C141.258 45.1833 140.965 44.868 140.715 44.472C140.466 44.0613 140.297 43.5627 140.209 42.976V39.082C140.209 38.598 140.319 38.1507 140.539 37.74C140.759 37.3147 141.053 36.948 141.419 36.64C141.786 36.3173 142.211 36.068 142.695 35.892C143.194 35.716 143.715 35.628 144.257 35.628H145.511ZM142.871 39.918H146.897V39.258C146.897 39.0673 146.846 38.884 146.743 38.708C146.655 38.5173 146.531 38.356 146.369 38.224C146.208 38.0773 146.025 37.9673 145.819 37.894C145.614 37.806 145.409 37.762 145.203 37.762H144.499C144.294 37.762 144.089 37.806 143.883 37.894C143.693 37.9673 143.517 38.0773 143.355 38.224C143.209 38.356 143.091 38.5173 143.003 38.708C142.915 38.884 142.871 39.0673 142.871 39.258V39.918ZM159.637 35.584V38.378C159.329 38.378 158.969 38.3927 158.559 38.422C158.148 38.4513 157.708 38.5173 157.239 38.62C156.769 38.708 156.293 38.8473 155.809 39.038C155.325 39.2287 154.855 39.4927 154.401 39.83V46.1H151.387V35.628H154.401V37.102C154.621 36.9407 154.892 36.772 155.215 36.596C155.537 36.42 155.911 36.266 156.337 36.134C156.777 35.9873 157.268 35.8627 157.811 35.76C158.368 35.6573 158.977 35.5987 159.637 35.584Z" fill="black"/>
</svg>
